Coordinates
version=1
nRows=7
nColumns=40
inDegrees=yes

Units are S.I. units (second, meters, Newtons, ...)
Angles are in degrees.

endheader
time	pelvis_tilt	pelvis_list	pelvis_rotation	pelvis_tx	pelvis_ty	pelvis_tz	hip_flexion_r	hip_adduction_r	hip_rotation_r	knee_angle_r	knee_angle_r_beta	ankle_angle_r	subtalar_angle_r	mtp_angle_r	hip_flexion_l	hip_adduction_l	hip_rotation_l	knee_angle_l	knee_angle_l_beta	ankle_angle_l	subtalar_angle_l	mtp_angle_l	lumbar_extension	lumbar_bending	lumbar_rotation	arm_flex_r	arm_add_r	arm_rot_r	elbow_flex_r	pro_sup_r	wrist_flex_r	wrist_dev_r	arm_flex_l	arm_add_l	arm_rot_l	elbow_flex_l	pro_sup_l	wrist_flex_l	wrist_dev_l
     28.73000000	     -3.37243477	     -3.99148217	      2.28535942	      1.11875131	      0.92937134	      0.50904228	     14.10050848	      0.78194659	    -15.92248727	     19.71919337	     19.71919337	     10.12595798	     -3.89881911	     -4.25775914	     28.01553007	    -13.41103270	      0.35568585	     61.57947360	     61.57947360	      8.91434883	    -18.20698452	     10.52421435	    -11.08473728	      6.53067016	      3.34268234	     11.71682100	    -18.89336233	     -6.80653978	     45.14514419	     45.38562705	      0.00000000	      0.00000000	      6.68195640	    -11.35232684	     -3.35571152	     41.12705908	     45.39274041	      0.00000000	      0.00000000
     28.74392857	     -3.48555790	     -3.87486926	      2.76856653	      1.11724775	      0.92999065	      0.50965821	     13.60191686	      0.78025511	    -16.08873346	     19.15124302	     19.15124302	     10.12130074	     -4.14343331	     -4.25825593	     29.12562556	    -13.45809907	      0.05578338	     59.41288121	     59.41288121	      9.32511533	    -18.52920911	     11.14017473	    -11.16066825	      6.31528254	      3.18213088	     12.63784923	    -18.88731060	     -6.75362328	     45.30638625	     45.38830254	      0.00000000	      0.00000000	      6.31220587	    -11.45449829	     -3.32698122	     39.58080772	     45.39349662	      0.00000000	      0.00000000
     28.75785714	     -3.67898346	     -3.79428296	      3.25765119	      1.11567114	      0.93023887	      0.51021657	     13.35854246	      0.74920721	    -16.35172410	     18.91958273	     18.91958273	     10.28317425	     -4.39001257	     -4.26605425	     30.21377265	    -13.51600675	     -0.31383999	     57.04539370	     57.04539370	      9.63104901	    -18.63428221	     11.45829940	    -11.17864539	      6.11174558	      3.41776733	     13.22477879	    -19.19939048	     -6.79132821	     45.56799220	     45.38556388	      0.00000000	      0.00000000	      5.86109657	    -11.44770086	     -3.32101164	     39.10486012	     45.38821340	      0.00000000	      0.00000000
     28.77178571	     -3.78000654	     -3.59767352	      3.75876476	      1.11414477	      0.93085757	      0.51059972	     12.79986413	      0.69696569	    -16.38823970	     18.23243224	     18.23243224	     10.07755002	     -4.91891387	     -4.66921266	     30.96876909	    -13.23425323	     -0.57433133	     54.35636210	     54.35636210	     10.28552956	    -18.82105020	     13.24931231	    -11.25592499	      5.83855480	      3.33109211	     13.89261596	    -19.46003976	     -6.03133061	     46.31239759	     45.34536303	      0.00000000	      0.00000000	      6.47347248	    -11.27979761	     -3.63982247	     35.28498230	     45.47512776	      0.00000000	      0.00000000
     28.78571429	     -3.96166352	     -3.42811695	      4.22851925	      1.11255407	      0.93115503	      0.51087278	     12.48200400	      0.58125128	    -16.58892275	     17.86752626	     17.86752626	     10.17163065	     -5.14954721	     -4.63601736	     31.63099329	    -12.94267902	     -0.89889549	     51.40473153	     51.40473153	     10.48386371	    -18.87065660	     13.70405002	    -11.31101133	      5.55065833	      3.31883871	     14.52371978	    -19.58902714	     -6.04671879	     46.87189704	     45.33180835	      0.00000000	      0.00000000	      5.99364077	    -11.38774244	     -3.69113744	     34.71946232	     45.48033254	      0.00000000	      0.00000000
     28.79964286	     -4.16529573	     -3.27330824	      4.67338299	      1.11090174	      0.93134397	      0.51105339	     12.20735175	      0.47670072	    -16.76313610	     17.51615920	     17.51615920	     10.24789614	     -5.38495357	     -4.61659718	     32.16344681	    -12.53362890	     -1.09970465	     48.26120326	     48.26120326	     10.68410695	    -18.83881692	     14.12596461	    -11.35487406	      5.22923187	      3.18390246	     15.19479849	    -19.67953646	     -6.00652465	     47.55725616	     45.31120308	      0.00000000	      0.00000000	      5.58760259	    -11.49205775	     -3.73190258	     33.96429076	     45.48518363	      0.00000000	      0.00000000
     28.81357143	     -4.40394280	     -3.46808207	      5.13735473	      1.10909748	      0.93094233	      0.51109283	     12.17089981	      0.66677452	    -17.07804282	     17.49991844	     17.49991844	     10.47853517	     -5.61426802	     -4.71198981	     32.88475206	    -12.37408454	     -0.95461070	     45.32786882	     45.32786882	     10.94446893	    -18.47288854	     14.41561472	    -11.32244572	      5.44668325	      3.45718774	     15.83374716	    -19.97697324	     -6.04464102	     47.91951804	     45.30434571	      0.00000000	      0.00000000	      5.25713286	    -11.51146835	     -3.74718180	     33.66363264	     45.48385116	      0.00000000	      0.00000000
